<?xml version="1.0" encoding="utf-8" ?><svg xmlns="http://www.w3.org/2000/svg" xmlns:xlink="http://www.w3.org/1999/xlink" width="260" height="256" viewBox="0 0 260 256"><path d="M60.9581 38.783C71.4719 22.5908 91.259 7.23849 111.591 10.4802C116.007 11.1843 116.023 11.8561 120.605 11.2249C124.758 10.6527 129.884 13.3668 132.863 16.3338C140.688 10.066 149.719 10.6931 156.34 18.426C167.739 13.7836 177.531 14.2239 188.937 19.0647C202.132 24.6653 211.915 36.292 217.394 49.3969C226.187 70.4364 225.548 93.5622 231.631 115.393C233.405 121.76 235.507 126.73 237.889 132.807C243.535 147.211 248.107 164.638 241.925 179.544C238.34 188.186 231.848 194.503 223.245 197.844C211.818 203.115 193.241 200.739 184.532 191.126C180.44 196.277 177.723 196.644 171.457 196.482C171.858 204.317 171.706 212.338 171.989 220.174C172.172 225.231 173.783 231.588 169.931 235.711C166.131 239.778 158.601 240.226 153.348 240.537C147.158 240.27 138.785 240.635 133.629 236.815C132.204 235.76 132.002 232.52 132.097 230.863C132.582 222.418 131.255 214.227 130.954 205.843C129.335 205.56 127.691 205.445 126.049 205.5C125.834 211.346 124.516 216.047 124.756 222.347C124.378 226.312 125.088 231.862 123.245 234.901C121.84 237.216 117.808 238.727 115.03 239.135C106.689 240.269 95.7152 240.892 88.2908 236.385C82.4276 232.826 84.8009 224.963 85.2094 219.614C85.4999 215.811 85.316 211.32 85.3003 207.451C85.287 204.195 85.5636 198.734 84.9336 195.622L84.9086 195.503C81.6452 195.599 78.13 194.623 75.4211 192.781C58.2653 203.872 34.1898 197.308 25.4767 178.595C13.9243 153.785 28.5636 129.894 38.0449 107.359C39.6718 103.492 40.8268 99.1361 42.2354 95.1678C46.5535 82.1782 47.729 69.202 52.483 56.2824C54.8401 49.2067 57.171 45.0606 60.9581 38.783Z"/><path fill="#FEFEFD" d="M101.913 14.0903C104.52 13.5263 109.354 14.1278 112.057 14.4863C101.183 24.749 109.649 39.5772 122.636 39.6117C126.371 39.6205 129.956 38.1402 132.597 35.4985C137.238 39.6953 142.771 41.7963 148.986 39.57C156.047 37.0409 160.59 29.366 157.833 22.0585C162.073 19.6918 167.921 19.0399 172.719 19.2347C185.017 19.7339 195.285 25.5116 203.525 34.4346C209.231 40.613 213.295 48.8032 215.99 56.7474C219.668 67.5915 221.363 79.7143 223.044 91.0236C224.047 97.7683 224.894 104.967 226.547 111.583C228.225 117.602 230.066 124.006 232.392 129.787C237.136 141.575 241.426 152.908 240.838 165.889C240.451 174.448 237.198 182.717 230.684 188.507C224.285 194.195 216.1 197.188 207.545 196.516C198.458 195.9 191.588 192.749 185.524 186.025C190.503 181.808 194.331 178.217 197.216 172.207C201.305 163.691 198.801 155.775 191.949 149.667C187.867 146.029 184.693 144.522 179.74 142.229L180.022 139.053C192.601 132.428 198.903 125.035 197.202 109.958C197.14 109.255 195.521 105.362 195.612 104.968C199.841 86.6299 199.228 66.7134 186.657 51.5947C185.23 49.8786 183.357 48.2497 181.824 50.9291C181.753 51.3311 181.696 52.0553 181.979 52.3721C195.834 67.8715 195.827 85.2551 191.627 105.278C192.411 107.217 193.049 109.084 193.418 111.149C194.352 116.43 193.126 121.865 190.014 126.233C183.387 135.663 170.396 138.077 159.812 139.911C145.704 143.055 124.356 141.581 110.213 139.745C103.762 138.75 96.9884 138.395 90.6338 136.614C80.5414 133.786 64.3629 129.209 61.3269 117.744C59.6961 111.585 63.0753 108.717 66.0174 104.074C65.5027 100.082 64.7712 97.4103 64.4491 92.948C63.4248 78.76 67.8367 63.0623 76.8946 51.9481C78.3647 50.1337 79.9168 48.3874 81.546 46.7144C83.3116 44.9214 86.3741 42.122 87.6109 40.1162C87.517 39.3214 87.4355 39.2229 86.9797 38.5571C83.4945 36.5743 73.5888 49.7436 71.8768 52.185C61.1057 67.5448 58.6574 85.3734 61.9991 103.591C57.6892 109.457 55.0199 114.925 58.789 122.17C64.1389 132.455 75.9521 136.301 86.3184 139.548C78.3589 142.213 67.2122 147.729 62.3798 154.776C54.9505 165.609 62.0108 178.191 71.7156 184.785C71.859 186.779 72.001 188.145 72.3364 190.112C70.7047 190.959 69.0825 191.789 67.403 192.48C57.7805 196.441 46.2663 194.158 38.0172 188.075C31.1337 183 26.6088 173.352 25.5734 165.018C22.5676 140.823 38.8618 120.394 45.4522 98.1591C49.7224 84.0632 51.4178 69.1845 56.7471 55.6352C64.0855 36.9778 81.0345 16.828 101.913 14.0903Z"/><path d="M104.72 59.9314C105.458 59.9264 105.679 59.9614 106.405 60.1051C108.9 62.9735 101.085 69.6696 115.632 73.6484C114.463 71.9167 113.717 70.5767 113.606 68.3971C113.517 66.6314 114.153 64.3031 116.282 64.253C118.259 65.2215 117.572 66.4768 117.036 68.1587C119.133 74.6377 124.417 75.7972 130.503 73.8397C131.995 73.174 133.655 72.4746 134.866 74.0383C134.948 74.7008 134.967 75.1978 134.477 75.7376C130.697 79.8979 124.813 78.31 120.123 77.6551C115.041 76.9455 110.485 77.1425 106.369 73.5716C102.446 70.1678 101.137 64.0103 104.72 59.9314Z"/><path d="M152.712 101.598C153.586 101.477 153.743 101.442 154.626 101.626C160.386 105.658 142.301 107.834 140.674 107.954C144.024 109.15 152.21 110.77 154.658 113.441C155.071 113.891 154.923 114.42 154.831 114.937C153.241 117.144 150.536 115.594 148.262 114.913C143.813 113.541 139.167 112.802 134.618 111.85C132.794 111.468 130.12 111.155 129.846 108.972C131.08 105.312 148.74 102.024 152.712 101.598Z"/><path d="M79.6819 98.7516C83.8386 98.8307 94.4014 103.082 98.8296 104.619C103.279 106.164 104.037 110.5 97.7558 110.301C95.4013 110.227 89.9304 111.205 87.575 111.713C85.4369 112.348 81.8455 113.807 79.9396 113.02C75.7992 108.418 90.2102 106.796 92.5372 106.497C91.6501 106.28 90.7699 106.036 89.8977 105.765C87.4565 104.995 81.8605 103.282 79.4434 101.901C79.2891 101.603 79.1579 101.349 79.0498 101.14C78.9672 100.209 79.3122 99.6135 79.6819 98.7516Z"/><path d="M111.926 115.655C115.324 116.376 118.951 118.467 120.79 121.652C121.029 122.067 120.786 122.381 120.603 122.764C119.906 123.255 119.814 123.293 118.981 123.483C118.026 123.814 117.867 124.265 117.597 125.258C123.393 131.834 110.676 136.926 107.582 126.629C107.876 125.725 108.45 124.667 108.885 123.799C105.059 119.694 107.51 117.282 111.926 115.655Z"/><path fill="#F8D7DB" d="M117.597 125.258C116.345 126.447 116.347 129.623 113.446 129.13C112.818 129.023 112.259 128.671 111.891 128.151C110.454 126.137 112.254 124.22 112.48 123.04C111.164 122.14 110.046 121.685 110.473 119.991C113.196 116.85 116.739 121.969 118.981 123.483C118.026 123.814 117.867 124.265 117.597 125.258Z"/><path d="M142.198 93.7673L142.759 93.749C148.432 96.8879 131.088 103.41 129.153 104.213C127.901 103.923 127.223 102.952 127.267 101.712C128.034 100.289 140.014 94.597 142.198 93.7673Z"/><path d="M91.6954 91.6067C93.3807 91.9615 104.73 99.6943 105.459 101.178C105.514 102.022 104.98 102.581 104.479 103.288C102.11 103.492 90.9432 95.8873 90.6708 93.4988C90.8597 92.5241 91.0605 92.3589 91.6954 91.6067Z"/><path d="M113.054 110.077C113.732 110.053 114.409 110.065 115.085 110.113C116.545 110.228 118.158 110.85 118.001 112.539C117.477 113.433 116.989 113.676 116.122 114.26C113.727 114.956 110.278 113.466 111.289 110.779C112.117 110.087 111.888 110.289 113.054 110.077Z"/><path fill="#B13A45" d="M66.128 113.938C66.9302 113.57 67.8785 113.926 68.2397 114.732C68.601 115.537 68.2368 116.482 67.4286 116.837C66.6298 117.187 65.6977 116.828 65.3406 116.032C64.9835 115.236 65.335 114.301 66.128 113.938Z"/><path fill="#FEFEFD" d="M93.398 142.072C95.7457 141.812 96.9021 142.137 99.144 142.674C99.0925 151.527 115.693 152.175 122.208 152.682C130.331 153.315 146.373 153.095 152.684 147.62C152.121 146.898 151.536 145.878 151.047 145.077C155.89 144.639 164.12 142.649 168.448 143.266C178.78 144.739 196.989 152.791 195.001 165.88C193.765 174.012 186.504 180.067 180.303 184.725C180.755 187.116 181.13 189.3 178.864 191.078C175.013 194.099 169.401 191.955 166.545 188.504C165.26 186.941 164.394 185.077 164.028 183.087C162.429 174.814 171.12 170.168 171.446 166.538C170.84 164.822 168.737 164.752 167.101 164.551C165.04 164.297 161.044 163.27 159.723 165.249C159.554 166.28 159.52 165.857 159.872 166.857C160.568 167.683 161.843 168.028 162.883 168.419L163.105 171.75C157.015 181.575 159.478 187.177 166.919 194.648C167.6 199.977 167.425 207.949 167.749 213.56C167.629 218.308 168.876 225.41 168.098 229.909C166.526 238.99 145.989 236.629 140.651 235.562C138.856 235.049 137.918 234.77 136.228 234.002C135.943 224.675 136.356 215.518 135.103 206.157C134.95 205.016 137.559 205.092 138.012 204.18C139.55 201.089 134.294 201.448 132.608 201.511C129.845 201.532 128.043 201.577 125.371 201.468C122.911 201.442 118.826 199.573 117.261 201.873C117.147 202.661 117.093 202.832 117.466 203.557C118.612 204.732 120.245 204.84 121.862 205.129C120.536 215.012 121.054 223.342 120.407 232.888C113.317 237.129 97.2123 237.539 90.2453 232.476C86.9272 230.064 88.8871 225.615 89.1039 222.46C90.3384 204.495 87.5538 186.57 92.5652 168.883C93.1399 166.852 95.6013 162.174 93.7143 160.713C92.9452 160.623 91.2449 161.291 90.5218 161.641C88.7308 162.51 83.5601 162.364 83.1437 164.439C83.6016 166.257 86.6427 169.642 87.9473 171.24C86.5557 176.751 85.7353 185.133 84.9641 191C80.2437 191.567 78.3744 191.17 75.6727 187.163C76.0478 186.184 76.6028 184.999 77.0281 184.018C71.4255 179.27 64.5361 174.86 63.2204 166.766C60.9542 152.825 82.8154 143.872 93.398 142.072Z"/><path fill="#F46781" d="M120.577 15.097C134.552 14.7311 137.163 33.8432 123.358 35.6669C117.524 35.8744 111.764 32.1898 111.013 26.106C110.716 23.5438 111.447 20.9687 113.044 18.9435C115.043 16.42 117.49 15.4228 120.577 15.097Z"/><path fill="#FEFEFD" d="M117.799 17.2263C122.826 17.4275 122.861 24.2057 116.893 25.452C110.626 24.4973 113.93 19.2283 117.799 17.2263Z"/><path fill="#F46781" d="M142.201 16.0552C144.404 15.8092 146.633 16.1719 148.645 17.104C151.224 18.3014 153.212 20.4878 154.16 23.1692C154.994 25.6259 154.804 28.3147 153.634 30.63C152.115 33.7094 149.727 35.2758 146.595 36.3527C142.069 37.2717 138.255 35.4656 134.933 32.5658C137.196 27.473 136.411 24.935 135.329 19.7414C137.681 17.3533 138.973 16.7808 142.201 16.0552Z"/><path fill="#FEFEFD" d="M103.899 143.532C106.777 143.477 111.487 144.08 114.536 144.358C119.045 144.726 123.559 145.038 128.076 145.295C131.238 145.487 134.405 145.575 137.572 145.557C139.088 145.554 145.429 145.216 146.252 146.266C145.839 146.887 145.748 146.762 144.933 147.05C135.343 149.511 124.907 149.41 115.175 147.918C111.853 147.408 105.401 146.939 103.899 143.532Z"/></svg>