<?xml version="1.0" encoding="utf-8" ?><svg xmlns="http://www.w3.org/2000/svg" xmlns:xlink="http://www.w3.org/1999/xlink" width="268" height="268" viewBox="0 0 268 268"><path d="M106.315 18.3123C106.433 18.3016 106.551 18.2926 106.67 18.2852C109.997 18.1067 115.095 18.1115 118.385 18.5061C120.296 18.6881 123.501 19.9211 125.28 19.9635C132.306 20.131 134.62 19.6924 140.222 24.7276C148.477 18.6726 156.298 20.7897 162.785 27.7289C166.718 26.4617 170.18 25.6631 174.361 25.5519C186.061 25.2923 197.399 29.6207 205.949 37.6116C222.572 53.452 225.255 73.2649 228.207 94.6399C228.629 96.3486 229.798 98.5885 230.648 100.082C235.228 108.126 234.077 116.907 232.85 125.618C233.113 128.929 233.944 132.374 234.707 135.615C238.246 150.543 246.708 163.691 247.795 179.311C248.624 191.227 248.218 200.892 239.523 209.917C232.965 216.649 223.985 220.475 214.586 220.543C204.304 220.709 195.969 217.596 188.631 210.476C184.962 212.429 183.253 212.723 179.157 213.194C177.979 218.546 176.862 225.466 176.8 230.959C176.83 233.268 177.9 238.437 177.417 240.597C175.093 250.971 155.385 247.606 147.585 247.412C145.02 247.348 141.564 245.707 140.161 243.834C138.846 236.836 141.684 226.432 141.158 219.219C139.219 223.395 137.777 236.729 136.704 241.683C136.338 243.406 135.51 244.644 133.909 245.433C129.04 247.779 123.329 247.728 117.953 247.706C112.183 247.682 101.983 246.997 98.8381 241.173C96.4391 236.729 99.6495 230.433 101.207 225.979C102.525 222.096 103.784 218.192 104.983 214.27C97.2021 214.141 92.1316 212.6 87.57 205.973C75.1854 221.81 56.2166 222.583 39.9852 211.55C23.3718 200.257 21.8759 176.281 25.8237 158.336C29.2264 142.869 38.536 128.279 43.8576 113.313C45.7934 107.999 47.4137 102.576 48.7098 97.0707C50.5004 89.43 51.7467 81.695 53.5905 74.0563C59.7557 48.5155 78.9115 22.757 106.315 18.3123Z"/><path fill="#FEFEFE" d="M107.924 21.8507C110.956 21.1496 117.276 22.0804 120.393 22.6301C105.636 37.2141 127.455 55.2156 139.719 43.6511C149.357 54.0801 167.979 47.4843 164.269 31.055C165.632 30.682 167.07 30.2864 168.447 30.0012C178.835 27.8179 189.964 30.6502 198.648 36.5711C213.578 46.7511 220.096 65.1317 222.558 82.3058C222.993 85.3386 223.357 88.4255 223.945 91.4304C220.886 88.8841 217.294 87.0586 213.434 86.0892C209.46 85.1323 205.245 85.2724 201.679 87.4537C198.317 69.0981 189.048 52.6653 172.041 43.7216C171.189 43.2734 170.184 43.0051 169.245 43.293C166.769 45.3747 169.535 46.776 171.347 47.7361C183.574 54.2136 191.9 66.3625 195.998 79.3678C196.783 81.8602 198.226 87.6269 197.723 90.4495C195.265 95.7983 197.321 98.8529 197.296 104.105C198.164 104.661 198.93 105.205 199.764 105.81C206.742 110.864 205.387 120.589 200.222 126.579C189.305 139.24 172.871 143.834 157.232 147.628C144.901 150.597 132.385 152.738 119.769 154.039C107.283 155.373 93.0872 157.061 82.7777 148.747C81.4917 147.595 80.3379 146.303 79.3378 144.896C75.3305 139.161 75.8493 134.441 76.9787 127.958C72.3248 116.488 70.1599 104.664 71.4784 92.2839C71.9608 88.1132 72.8531 84.0003 74.1426 80.0048C74.8867 77.7018 75.763 75.4436 76.7671 73.2415C77.3547 71.9483 79.5271 68.8056 77.6282 68.0139C75.9151 67.34 74.99 68.4093 74.2644 69.82C65.4102 87.0331 64.6985 110.788 73.4056 128.285C73.3209 128.628 73.2391 128.971 73.16 129.314C69.7583 144.162 79.8811 155.073 93.8369 158.179C94.0136 161.321 93.9609 173.843 92.9388 176.24C88.6048 186.4 85.5042 188.661 85.9171 200.653C85.145 202.178 83.9814 203.878 82.9229 205.22C78.6675 210.711 72.3609 214.235 65.4536 214.981C57.609 215.879 47.062 212.427 40.9773 207.47C32.5045 200.664 29.1404 191.035 27.9891 180.581C25.0794 154.162 41.7698 132.761 49.4098 108.645C54.1054 93.8242 55.2146 78.0241 60.9491 63.5494C63.9709 56.1047 68.0465 49.1328 73.0511 42.8473C81.5154 32.3602 94.2482 23.333 107.924 21.8507Z"/><path d="M115.949 106.839C116.769 106.721 118.168 106.739 119.013 106.84C122.783 107.281 126.209 109.242 128.5 112.268C132.281 117.199 134.264 123.082 128.358 127.272C117.836 134.737 104.568 133.302 107.308 117.052L108.029 113.702C99.1866 123.752 105.262 129.369 103.791 132.313C101.853 133.834 100.637 131.538 100.158 129.94C99.2723 126.985 99.4599 124.57 99.8719 121.599C98.3178 121.096 97.1623 120.891 96.291 119.466C96.1838 118.602 96.1124 118.949 96.6014 118.168C97.9123 117.29 99.2603 117.63 100.796 117.819C104.787 111.64 108.231 107.902 115.949 106.839Z"/><path fill="#302F2F" d="M122.269 119.187C128.008 121.286 123.529 126.856 119.9 128.724C118.5 128.649 117.762 128.536 116.38 128.271C114.271 127.339 112.669 125.336 113.006 122.837C113.34 120.354 117.983 121.036 119.651 120.542C120.432 120.311 121.495 119.647 122.269 119.187Z"/><path fill="#FEFEFE" d="M116.228 111.868C117.379 111.51 118.634 111.799 119.512 112.624C120.391 113.449 120.757 114.683 120.472 115.854C120.186 117.025 119.293 117.952 118.133 118.28C116.372 118.779 114.537 117.769 114.016 116.015C113.494 114.26 114.48 112.412 116.228 111.868Z"/><path d="M153.183 73.8735C160.28 73.9004 154.256 86.7396 140.699 85.8325C134.015 92.396 122.037 89.3451 119.389 80.3292C118.765 78.2045 118.898 76.2245 121.293 75.5365C122.534 76.4231 122.862 78.2732 123.391 79.7318C125.903 86.6616 131.318 86.574 137.513 84.1386C135.824 82.492 133.267 79.4757 134.935 76.75C135.24 76.2516 135.426 76.3141 135.972 76.2091C138.687 77.1772 137.554 80.8487 141.546 81.8229C145.522 82.7931 148.967 81.1175 151.454 77.9639C152.382 76.7868 152.749 75.2527 153.183 73.8735Z"/><path d="M186.451 99.6682C187.557 100.18 187.707 100.452 187.855 101.569C187.551 102.695 187.115 103.086 186.346 103.98C187.715 104.728 189.402 105.399 188.97 107.204C188.789 107.404 188.578 107.637 188.336 107.905C185.29 108.201 182.301 107.415 179.206 108.121C173.706 109.376 170.202 111.498 165.499 114.219L163.199 115.52C162.559 114.759 161.888 114.214 161.806 113.237C162.42 109.277 172.439 104.691 176.031 103.322C179.845 101.869 183.701 102.497 186.451 99.6682Z"/><path d="M150.31 123.523C150.426 123.512 150.543 123.502 150.659 123.494C152.555 123.353 156.078 123.782 156.255 126.238C155.233 127.946 153.211 126.717 151.716 126.137C150.518 126.773 150.214 126.909 149.305 127.891C148.333 129.055 147.271 131.637 145.686 131.244C143.861 128.359 147.962 124.694 150.31 123.523Z"/><path d="M108.77 98.8926C109.454 98.814 110.11 99.0274 110.576 99.5302C110.759 102.234 105.589 104.751 103.388 105.672C102.423 105.226 101.766 105.069 101.625 103.956C102.402 102.362 106.224 101.429 108.77 98.8926Z"/><path d="M171.388 85.8498C172.279 85.9346 179.454 87.8619 180.244 88.2523C180.542 88.9632 180.373 89.0651 180.205 89.9206C177.814 90.7038 173.656 89.6788 171.825 87.9782C171.181 87.3793 171.361 86.6325 171.388 85.8498Z"/><path d="M148.646 117.51C149.739 117.435 150.299 117.416 151.183 118.017C152.265 120.056 149.977 121.428 148.407 122.183C147.27 122.078 146.433 121.788 145.602 121.022C144.671 118.79 146.976 118.09 148.646 117.51Z"/><path d="M196.896 111.205C197.28 110.814 197.844 110.66 198.373 110.802C198.902 110.943 199.313 111.359 199.45 111.889C199.587 112.419 199.428 112.982 199.034 113.362C198.436 113.938 197.486 113.927 196.902 113.337C196.317 112.748 196.315 111.798 196.896 111.205Z"/><path fill="#FEFEFE" d="M207.515 89.3175C209.692 89.1442 211.882 89.4027 213.959 90.0781C229.624 95.1047 232.886 113.266 227.961 127.177C221.464 145.53 206.303 157.411 189.146 165.294C185.04 167.181 180.675 168.535 176.681 170.529C177.398 181.187 177.987 191.583 176.69 202.23C175.539 211.683 173.162 221.235 172.871 230.765C172.794 233.299 173.792 235.826 173.821 238.365C173.835 239.56 173.596 240.72 172.728 241.59C169.609 244.713 161.487 244.687 157.381 244.63C154.704 244.592 145.776 244.362 143.984 242.345C142.683 240.882 145.677 218.22 145.834 214.778C147.565 214.497 155.115 213.687 152.943 210.55C151.252 209.642 146.653 211.076 144.233 211.063C141.039 211.046 137.756 210.178 134.691 210.453C133.949 210.519 133.602 210.995 133.264 211.528C133.465 213.795 136.375 214.118 138.304 214.596C136.487 219.204 135.091 227.913 134.242 232.957C133.748 235.897 133.681 239.113 132.861 242.052C132.588 242.175 132.312 242.289 132.033 242.395C125.507 244.873 111.381 244.75 104.823 241.785C102.53 240.369 101.233 238.402 101.96 235.695C104.204 227.338 107.871 219.289 110.281 210.969C112.329 203.899 112.915 196.783 114.685 189.64C115.445 186.573 117.918 181.25 118.127 178.517C117.896 177.902 117.845 177.713 117.21 177.402C114.775 176.209 113.372 181.008 112.915 182.336C111.632 185.977 110.623 189.709 109.896 193.501C109.286 196.706 108.158 206.254 106.952 208.608C106.318 209.212 105.664 209.534 104.791 209.7C101.032 210.553 98.4288 210.057 95.1552 208.015C85.3007 201.869 90.202 188.253 95.4133 180.529C100.143 173.52 108.377 163.064 116.156 159.328C120.419 158.257 125.774 161.123 129.826 161.168C143.074 161.315 158.666 159.669 169.463 151.434C170.745 150.456 169.779 148.727 170.778 148.354C173.75 147.245 176.78 146.304 179.73 145.136C189.14 140.991 199.29 135.188 205.258 126.609C207.502 123.132 208.532 118.651 208.569 114.55C208.577 113.625 209.263 109.807 209.476 110.099C206.35 105.807 201.112 103.112 200.083 97.4254C199.202 92.5596 203.269 90.0446 207.515 89.3175Z"/><path fill="#FEFEFE" d="M229.679 132.913C230.311 133.461 231.318 137.18 231.608 138.144C237.202 156.684 247.792 173.9 243.701 194.089C240.798 208.416 226.466 217.43 212.4 216.716C206.283 216.406 203.038 215.286 197.62 212.547C194.678 210.754 193.729 209.933 191.326 207.446C198.593 198.586 193.136 184.129 181.4 182.157C181.202 179.085 181.106 175.845 180.968 172.756C183.962 171.94 192.909 167.806 195.933 166.347C208.405 160.329 225.157 146.271 229.679 132.913Z"/><path fill="#F5728D" d="M127.733 23.3701C133.306 22.3532 138.647 26.0502 139.658 31.6242C140.669 37.1983 136.966 42.5353 131.391 43.5401C125.824 44.5433 120.497 40.8475 119.488 35.282C118.479 29.7165 122.169 24.3854 127.733 23.3701Z"/><path fill="#FEFEFE" d="M125.941 25.7018C130.631 25.5051 131.163 31.8039 125.454 33.2267C119.016 32.6614 121.708 27.8024 125.941 25.7018Z"/><path fill="#F5728D" d="M149.752 24.8317C151.745 24.8741 153.701 25.3729 155.471 26.2897C158.049 27.6568 160.103 29.9887 160.933 32.8058C161.613 35.1038 161.348 37.5781 160.197 39.6799C158.561 42.6404 156.038 43.9232 152.942 44.7899C148.357 45.4575 145.241 43.8006 142.038 40.731C142.196 40.4259 142.349 40.118 142.496 39.8074C144.618 35.3722 143.788 32.6095 142.263 28.2717C144.494 26.0965 146.742 25.2171 149.752 24.8317Z"/><path fill="#FEFEFE" d="M181.539 186.199C184.448 187.053 186.365 187.945 188.336 190.477C190.292 192.997 191.155 196.197 190.73 199.359C190.284 202.796 188.757 204.879 186.127 206.913C183.657 208.689 182.51 208.858 179.628 209.288C181.099 200.582 181.358 194.965 181.539 186.199Z"/><path fill="#FEFEFE" d="M163.311 150.328C163.743 150.191 163.769 150.234 164.201 150.336C163.68 151.209 160.364 152.446 159.325 152.838C149.612 156.405 139.272 157.945 128.941 157.363C128.66 157.314 128.168 157.168 127.873 157.09C128.538 156.472 134.367 155.874 135.638 155.683C145.025 154.272 154.056 152.354 163.311 150.328Z"/><path fill="#FEFEFE" d="M97.7822 158.992C102.025 159.18 105.176 159.316 109.449 158.908C107.306 160.587 105.211 162.757 103.324 164.727C101.325 166.798 99.3616 168.902 97.4343 171.04C97.8119 166.97 97.8313 163.066 97.7822 158.992Z"/></svg>