<?xml version="1.0" encoding="utf-8" ?><svg xmlns="http://www.w3.org/2000/svg" xmlns:xlink="http://www.w3.org/1999/xlink" width="260" height="260" viewBox="0 0 260 260"><path d="M101.137 14.3139C101.372 14.2925 101.607 14.2748 101.842 14.2607C105.064 14.0742 109.995 14.0977 113.145 14.4725C115.102 14.6461 118.577 15.9242 120.383 15.9236C127.735 15.9214 129.405 15.7073 135.129 20.829C143.893 15.1646 150.362 16.3177 157.471 23.644C159.691 23.3873 161.842 22.7555 164.035 22.4223C180.73 19.8863 196.687 26.5297 206.53 40.1576C227.617 69.3529 218.894 107.845 231.012 140.258C237.17 156.727 244.997 172.19 242.299 190.403C240.933 200.219 236.469 208.871 228.37 214.811C226.512 216.172 224.704 217.166 222.675 218.258C215.592 222.071 207.519 222.441 199.68 221.438C194.57 220.784 189.494 218.581 185.116 215.889C180.606 213.115 177.847 209.638 174.752 205.464C170.849 208.205 166.587 208.887 161.937 208.209C162.196 212.949 161.62 219.002 161.878 223.974C161.923 227.271 162.493 230.503 162.426 233.799C162.173 246.07 142.733 244.082 134.566 243.435C130.157 242.543 125.332 242.024 125.195 236.651C125.115 233.507 125.112 230.485 125.123 227.34C125.172 222.972 125.029 218.603 124.697 214.247C124.592 212.795 124.539 210.395 123.966 209.138C123.223 208.596 123.533 208.673 122.756 208.68C122.443 208.913 122.082 209.273 122.034 209.684C121.681 213.655 120.857 220.453 120.993 224.24C121.552 236.153 123.994 242.377 109.117 243.556C101.451 244.163 86.3722 244.634 83.3231 235.694C82.2771 232.627 83.3287 222.944 83.2469 219.144C83.1135 212.945 83.185 206.913 82.6321 200.717C82.2076 201.36 81.775 201.998 81.3343 202.63C70.3459 218.32 49.8246 217.493 35.0305 207.563C26.6026 201.906 21.0557 191.282 19.6213 181.397C18.5248 173.84 18.6474 163.878 20.0902 156.281C23.3866 142.024 30.7457 128.813 36.2616 115.334C37.882 111.314 39.2823 107.185 40.6473 103.069C45.6922 87.8564 47.008 72.7993 52.6713 57.6198C54.9829 51.4742 58.0767 45.652 61.8762 40.297C71.2305 27.1821 85.0254 17.0256 101.137 14.3139Z"/><path fill="#FEFEFD" d="M102.849 17.8488C106.845 17.3631 110.904 17.9178 114.847 18.5384C107.017 27.1321 109.106 38.4484 120.512 42.2823C126.466 44.2837 129.054 42.6961 134.269 39.9752C135.18 40.1758 136.739 42.1024 137.858 42.6452C141.803 44.5585 145.686 45.4894 149.984 44.1808C153.575 43.0651 156.565 40.5468 158.274 37.1968C160.013 33.8092 160.231 30.7484 159.087 27.1877C165.612 25.0307 172.606 24.7174 179.298 26.2824C190.7 28.8498 200.058 36.2852 206.151 46.1146C221.569 71.2934 217.455 102.757 224.31 130.464C229.729 152.367 243.243 169.795 237.745 193.634C235.903 201.831 230.831 208.938 223.678 213.346C208.088 223.079 187.204 218.026 177.566 202.483C183.062 194.462 179.842 182.588 171.281 177.983C171.116 167.197 173.121 156.745 174.863 146.128C183.083 142.576 190.405 139.021 193.511 129.88C195.496 124.034 195.455 118.622 192.78 113.019C196.738 103.07 197.261 84.8885 194.095 74.8275C192.493 69.0357 190.078 63.761 186.515 58.9113C185.459 57.4737 183.037 53.7006 181.342 57.0086C181.293 58.8578 183.878 61.4154 185.006 63.2191C195.261 79.6201 193.15 96.0376 189.526 113.537C190.422 115.899 190.944 118.386 191.072 120.909C192.048 141.633 165.244 145.641 149.558 146.325C147.586 143.488 145.02 141.233 142.259 139.201C133.381 133.259 122.715 134.742 117.75 144.794C116.326 141.825 113.14 138.582 110.206 137.106C101.688 132.821 95.3742 136.33 88.8821 141.72C83.6584 140.45 78.6328 138.473 73.9447 135.842C67.0151 132.008 59.3093 125.853 59.773 117.114C60.0217 112.427 62.5803 110.809 64.7061 107.024C64.6386 105.966 64.4293 104.54 64.2688 103.496C61.1897 83.4816 67.5521 62.2285 82.751 48.5053C84.7271 46.721 86.8809 44.856 88.725 42.8812C88.3575 42.2522 87.1025 40.2327 86.1596 40.8994C65.4759 55.5243 56.1554 82.1795 61.0752 106.717C52.9146 115.723 55.6164 125.49 63.7085 133.267C69.6834 139.01 76.5913 142.071 84.4071 144.479C80.1014 148.349 76.2986 153.017 74.4223 158.542C71.2133 167.991 74.7641 177.359 84.7162 180.493C82.4478 189.221 83.8722 192.51 77.6596 200.846C67.3758 214.645 49.104 213.366 36.2672 203.716C22.2951 193.212 19.9017 170.433 24.3314 154.466C28.9707 137.744 38.9631 121.537 44.0567 104.75C48.7781 90.3285 50.2241 73.8522 55.67 60.1138C58.7892 52.2868 63.0297 44.9549 68.2583 38.3479C76.7756 27.7488 89.1119 19.3424 102.849 17.8488Z"/><path d="M151.768 79.7078C153.018 79.6103 153.773 79.9655 154.299 81.1242C154.336 83.8091 150.211 84.9075 148.09 85.7564C152.117 86.4213 155.693 87.4872 159.011 90.0454C167.121 96.2566 168.079 110.827 162.053 118.703C158.48 123.372 153.272 125.085 147.683 125.744C139.511 125.932 130.81 122.238 127.986 113.97C126.095 108.435 126.615 100.875 129.441 95.7091C130.562 93.6601 132.213 91.7385 133.196 89.6529L133.297 89.4348L132.764 89.5128C134.273 88.8438 137.629 86.8486 139.202 85.9864C143.475 83.6442 147.301 81.6508 151.768 79.7078Z"/><path fill="#FEFEFD" d="M144.62 90.179C153.342 89.194 161.208 95.4728 162.18 104.196C163.153 112.919 156.862 120.776 148.138 121.735C139.432 122.693 131.594 116.418 130.624 107.713C129.654 99.0082 135.917 91.162 144.62 90.179Z"/><path d="M140.671 102.029C146.307 102.615 145.312 110.54 141.693 112.09C141.293 112.062 140.106 111.979 139.799 111.795C136.87 110.044 137.204 104.906 139.375 102.689C139.709 102.347 140.224 102.172 140.671 102.029Z"/><path d="M85.1624 75.905C86.4303 75.8288 88.1256 76.9872 89.1053 77.7678C93.2603 81.0785 97.8777 83.8587 101.907 87.3186C102.891 88.1643 102.659 88.3015 102.475 89.338C103.296 90.8102 104.105 92.0902 104.765 93.67C105.805 96.1741 106.382 98.8462 106.467 101.556C106.89 113.565 100.429 121.031 88.4012 121.381C70.8121 120.814 64.8407 103.296 74.4051 89.7869C77.7724 85.0308 82.716 83.2406 88.3284 82.4534C85.5876 80.3798 82.5092 79.4129 85.1624 75.905Z"/><path fill="#FEFEFD" d="M86.4435 87.068C105.347 84.5878 109.34 114.999 90.0594 117.674C70.1501 119.444 68.6412 90.6027 86.4435 87.068Z"/><path d="M92.3791 99.4511C97.0356 100.148 97.226 107.563 92.97 109.545C88.9258 109.492 88.4867 105.647 89.5026 102.437C90.043 100.73 90.8 100.216 92.3791 99.4511Z"/><path d="M113.708 119.298C123.721 118.18 126.76 131.31 121.124 137.69C120.565 138.323 119.731 138.761 118.98 139.152C117.569 139.323 116.149 139.242 114.726 139.205C107.954 134.794 105.628 123.434 113.708 119.298Z"/><path fill="#FEFEFD" d="M115.34 122.973C119.961 123.038 120.493 129.961 119.374 133.192C118.876 134.633 118.383 134.876 117.088 135.525C112.108 134.413 110.728 125.976 115.34 122.973Z"/><path d="M105.229 62.6985L106.415 62.8972C109.187 65.3098 100.784 71.7869 115.319 76.9821C113.725 73.9548 112.23 69.2577 116.047 67.0755C116.305 66.9278 116.733 67.0358 116.959 67.2259C118.686 68.6603 116.862 70.8874 117.379 72.6611C118.853 77.7214 125.062 78.8572 129.549 77.773C131.077 77.203 134.023 75.8461 134.902 77.9683C134.705 78.8958 134.249 79.4217 133.489 79.976C128.587 83.5509 121.58 80.9384 115.994 80.5032C109.006 79.9589 101.33 74.1711 102.991 66.3854C103.371 64.6057 103.696 63.7957 105.229 62.6985Z"/><path d="M111.76 113.818C113.615 113.671 117.431 113.207 117.881 115.572C117.72 116.421 117.066 116.855 116.407 117.442C114.52 118.408 111.703 117.596 111.038 115.483C111.157 114.314 111.007 114.731 111.76 113.818Z"/><path fill="#270808" d="M64.655 115.945C65.4247 115.54 66.3772 115.83 66.7903 116.596C67.2034 117.361 66.9233 118.317 66.1621 118.738C65.6627 119.014 65.0533 119.001 64.5663 118.703C64.0793 118.405 63.7898 117.869 63.8081 117.298C63.8265 116.728 64.1499 116.211 64.655 115.945Z"/><path fill="#FEFEFD" d="M117.545 162.702C117.913 162.919 119.597 166.185 120.059 166.828C128 177.863 144.394 184.823 157.403 181.314C158.912 190.095 158.552 195.075 158.251 203.751C158.105 209.278 158.06 214.807 158.118 220.336C158.138 222.38 158.196 224.301 158.265 226.381C158.359 229.243 159.433 233.125 158.325 235.769C157.681 237.309 155.62 238.657 154.095 239.156C147.328 241.371 135.487 240.981 129.126 238.029C128.892 236.351 128.275 210.254 128.455 209.455C129.321 207.877 131.069 208.577 131.459 206.535C131.363 206.283 131.138 205.604 130.992 205.456C130.118 204.576 126.8 204.922 125.415 204.969C123.087 205.018 121.08 204.676 118.804 204.382C116.783 204.121 113.598 203.118 112.622 205.382C113.044 207.893 116.104 208.055 118.294 208.399C117.534 213.763 117.626 219.606 117.491 224.927C117.425 227.545 118.562 236.975 116.322 238.002C110.897 240.491 101.439 240.967 95.6064 239.66C90.5692 238.532 86.0878 237.09 86.3227 231.294C86.472 227.224 86.6995 223.182 86.7547 219.126C86.8826 209.728 86.4971 200.298 87.0585 190.915C87.2251 188.131 88.273 183.7 88.8576 180.875C91.3734 180.657 93.8637 180.207 96.2965 179.53C105.324 176.947 112.962 170.897 117.545 162.702Z"/><path fill="#FEFEFD" d="M130.973 139.318C141.153 138.72 147.11 149.641 152.715 156.274C153.141 156.728 154.724 158.421 155.219 158.478C161.161 159.172 153.058 150.675 152.51 149.99C155.002 149.988 158.151 149.597 160.658 149.296C166.52 155.825 169.165 164.724 164.132 172.596C154.616 184.158 135.833 177.042 126.508 168.507C117.257 160.038 115.761 141.991 130.973 139.318Z"/><path fill="#FEFEFD" d="M101.334 139.059C116.971 137.904 119.02 157.392 110.135 166.474C104.283 172.456 97.7926 176.466 89.3302 177.098C80.9039 177.181 75.4417 170.144 77.1272 162.036C77.4908 160.287 78.5827 156.386 80.041 155.391C80.9797 155.361 80.9147 155.578 81.8642 156.301L82.3228 156.235C84.7613 153.806 86.4109 150.636 88.523 147.91C91.9628 143.469 95.6666 140.035 101.334 139.059Z"/><path fill="#EF7289" d="M121.545 19.4327C127.03 17.9546 132.675 21.2046 134.15 26.6906C135.626 32.1766 132.373 37.8198 126.887 39.293C121.404 40.7652 115.765 37.5151 114.29 32.0326C112.815 26.5502 116.063 20.9099 121.545 19.4327Z"/><path fill="#FEFEFD" d="M120.722 21.2772C124.22 20.4312 126.764 27.0416 120.189 28.8511C119.153 28.7906 118.056 28.6421 117.231 27.9536C116.718 27.5288 116.403 26.9106 116.362 26.2457C116.269 24.8387 117.16 23.6283 117.973 22.5803C118.618 21.7499 119.693 21.5641 120.722 21.2772Z"/><path fill="#EF7289" d="M143.782 21.0571C149.093 20.8151 154.179 23.5473 155.705 28.8783C156.396 31.2455 156.107 33.7911 154.902 35.9428C153.309 38.7384 150.913 40.0676 147.944 40.8879C147.41 40.9442 146.876 40.9907 146.34 41.0273C142.148 41.3018 139.566 39.3858 136.646 36.8151C138.902 31.6897 138.946 29.5259 137.162 24.2177C139.464 22.4148 140.86 21.5113 143.782 21.0571Z"/><path fill="#FEFEFD" d="M164.265 180.31C168.208 179.996 171.234 181.523 173.703 184.624C176.02 187.509 177.046 191.221 176.539 194.886C176.033 198.73 174.341 200.756 171.439 202.993C167.893 205.001 165.885 204.808 162.025 204.363C162.839 197.482 162.865 188.48 161.166 181.859C162.222 181.2 163.138 180.814 164.265 180.31Z"/><path fill="#FEFEFD" d="M169.663 147.602C169.998 147.478 170.05 147.542 170.435 147.606C170.879 148.863 169.68 155.534 169.455 157.332L168.532 154.339C167.368 152.009 166.299 150.509 164.852 148.364C166.454 148.098 168.058 147.844 169.663 147.602Z"/></svg>