<?xml version="1.0" encoding="UTF-8" standalone="no"?>
<svg
   version="1.0"
   width="163.000000pt"
   height="116.000000pt"
   viewBox="0 0 163.000000 116.000000"
   preserveAspectRatio="xMidYMid meet"
   id="svg9"
   sodipodi:docname="claude code logo-2.svg"
   inkscape:version="1.4.4 (dcaf3e7, 2026-05-05)"
   xmlns:inkscape="http://www.inkscape.org/namespaces/inkscape"
   xmlns:sodipodi="http://sodipodi.sourceforge.net/DTD/sodipodi-0.dtd"
   xmlns="http://www.w3.org/2000/svg"
   xmlns:svg="http://www.w3.org/2000/svg">
  <defs
     id="defs9" />
  <sodipodi:namedview
     id="namedview9"
     pagecolor="#ffffff"
     bordercolor="#000000"
     borderopacity="0.25"
     inkscape:showpageshadow="2"
     inkscape:pageopacity="0.0"
     inkscape:pagecheckerboard="0"
     inkscape:deskcolor="#d1d1d1"
     inkscape:document-units="pt"
     inkscape:zoom="1.2285985"
     inkscape:cx="103.77679"
     inkscape:cy="53.719748"
     inkscape:window-width="1408"
     inkscape:window-height="881"
     inkscape:window-x="0"
     inkscape:window-y="0"
     inkscape:window-maximized="0"
     inkscape:current-layer="svg9" />
  <metadata
     id="metadata1">
Created by potrace 1.16, written by Peter Selinger 2001-2019
</metadata>
  <g
     transform="matrix(0.1,0,0,-0.1,0,116.61045)"
     fill="#000000"
     stroke="none"
     id="g9"
     style="opacity:0;fill-rule:nonzero">
    <path
       d="M 0,1025 V 890 h 134 135 l 3,135 3,135 H 138 0 Z"
       id="path1"
       style="opacity:0;fill-rule:nonzero" />
    <path
       d="m 1358,1143 c 5,-10 8,-56 7,-103 -1,-47 0,-100 3,-117 l 4,-33 h 129 129 v 135 135 h -140 c -131,0 -140,-1 -132,-17 z"
       id="path2"
       style="opacity:0;fill-rule:nonzero" />
    <path
       d="m 417,991 c -2,-11 -2,-40 0,-65 l 6,-46 h 63 64 v 65 65 h -64 c -54,0 -64,-3 -69,-19 z"
       id="path3"
       style="opacity:0;fill-rule:nonzero" />
    <path
       d="m 1080,945 v -65 h 63 c 35,0 66,2 68,4 2,2 2,32 1,65 l -4,61 h -64 -64 z"
       id="path4"
       style="opacity:0;fill-rule:nonzero" />
    <path
       d="m 1498,593 -128,-4 -1,-212 c -1,-117 -1,-242 1,-280 1,-42 -3,-73 -10,-82 -11,-13 5,-15 129,-15 h 141 v 300 c 0,165 -1,299 -2,298 -2,-1 -60,-4 -130,-5 z"
       id="path5"
       style="opacity:0;fill-rule:nonzero" />
    <path
       d="M 0,295 V 0 h 138 137 l -3,295 -3,295 H 135 0 Z"
       id="path6"
       style="opacity:0;fill-rule:nonzero" />
    <path
       d="M 428,165 425,0 h 58 57 l -2,163 -3,162 -52,3 -52,3 z"
       id="path7"
       style="opacity:0;fill-rule:nonzero" />
    <path
       d="m 697,324 c -4,-4 -7,-79 -7,-166 V 0 h 125 125 l -2,163 -3,162 -116,3 c -63,1 -118,-1 -122,-4 z"
       id="path8"
       style="opacity:0;fill-rule:nonzero" />
    <path
       d="m 1100,171 c 0,-118 -3,-161 -12,-164 -7,-3 16,-6 52,-6 l 65,-1 -3,165 -3,165 h -49 -50 z"
       id="path9"
       style="opacity:0;fill-rule:nonzero" />
  </g>
  <path
     style="fill:#000000;fill-rule:nonzero;stroke-width:0.813936"
     d="m 56.704178,36.898412 c -0.298443,-0.298442 -0.542623,-3.73883 -0.542623,-7.645305 0,-5.72587 0.249569,-7.198451 1.287473,-7.596732 0.70811,-0.271728 4.553955,-0.49405 8.546323,-0.49405 h 7.258851 v 8.139356 8.139355 h -8.0037 c -4.402035,0 -8.247881,-0.24418 -8.546324,-0.542624 z"
     id="path16"
     transform="scale(0.75)" />
  <path
     style="fill:#000000;fill-rule:nonzero;stroke-width:0.813936"
     d="m 144.0666,29.301681 v -8.139356 h 8.54632 8.54632 v 8.139356 8.139355 h -8.54632 -8.54632 z"
     id="path17"
     transform="scale(0.75)" />
  <rect
     style="fill:#ff6600;fill-rule:nonzero;stroke-width:0.75"
     id="rect17"
     width="30.522583"
     height="29.301682"
     x="0"
     y="26.249422" />
  <rect
     style="fill:#ff6600;fill-rule:nonzero;stroke-width:0.75"
     id="rect18"
     width="16.482197"
     height="27.470325"
     x="26.249422"
     y="-0.6104517" />
  <rect
     style="fill:#ff6600;fill-rule:nonzero;stroke-width:0.75"
     id="rect19"
     width="14.650841"
     height="56.772003"
     x="28.080776"
     y="26.249422" />
  <rect
     style="fill:#ff6600;fill-rule:nonzero;stroke-width:0.75"
     id="rect20"
     width="14.650841"
     height="33.574844"
     x="28.080776"
     y="82.41098" />
  <rect
     style="fill:#ff6600;fill-rule:nonzero;stroke-width:0.75"
     id="rect21"
     width="79.358719"
     height="39.679359"
     x="41.510712"
     y="26.859873" />
  <rect
     style="fill:#ff6600;fill-rule:nonzero;stroke-width:0.75"
     id="rect22"
     width="49.446587"
     height="17.092648"
     x="37.237553"
     y="48.836136" />
  <rect
     style="fill:#ff6600;fill-rule:nonzero;stroke-width:0.75"
     id="rect23"
     width="92.1782"
     height="22.586712"
     x="44.562973"
     y="60.434715" />
  <rect
     style="fill:#ff6600;fill-rule:nonzero;stroke-width:0.75"
     id="rect24"
     width="19.534454"
     height="14.650841"
     x="32.964394"
     y="56.772003" />
  <rect
     style="fill:#ff6600;fill-rule:nonzero;stroke-width:0.75"
     id="rect25"
     width="21.976261"
     height="14.040388"
     x="32.964394"
     y="68.981033" />
  <rect
     style="fill:#ff6600;fill-rule:nonzero;stroke-width:0.75"
     id="rect26"
     width="93.399109"
     height="16.482197"
     x="42.121166"
     y="-0.6104517" />
  <rect
     style="fill:#ff6600;fill-rule:nonzero;stroke-width:0.75"
     id="rect27"
     width="52.498844"
     height="15.261292"
     x="54.940651"
     y="12.819486" />
  <rect
     style="fill:#ff6600;fill-rule:nonzero;stroke-width:0.75"
     id="rect28"
     width="15.871744"
     height="19.534454"
     x="92.1782"
     y="11.598582" />
  <rect
     style="fill:#ff6600;fill-rule:nonzero;stroke-width:0.75"
     id="rect29"
     width="15.871744"
     height="47.00478"
     x="119.64853"
     y="15.871744" />
  <rect
     style="fill:#ff6600;fill-rule:nonzero;stroke-width:0.75"
     id="rect30"
     width="33.574844"
     height="32.964394"
     x="130.0262"
     y="26.859873" />
  <rect
     style="fill:#ff6600;fill-rule:nonzero;stroke-width:0.75"
     id="rect31"
     width="15.871744"
     height="34.185295"
     x="52.498844"
     y="81.800522" />
  <rect
     style="fill:#ff6600;fill-rule:nonzero;stroke-width:0.75"
     id="rect32"
     width="18.924002"
     height="34.795746"
     x="91.567757"
     y="81.800522" />
  <rect
     style="fill:#ff6600;fill-rule:nonzero;stroke-width:0.75"
     id="rect33"
     width="18.924002"
     height="34.795746"
     x="118.42763"
     y="81.800522" />
  <path
     style="fill:none;fill-rule:nonzero;stroke-width:0.813936"
     d="M 0,116.39279 V 77.323879 h 17.906583 17.906582 l 0.0049,32.353941 c 0.0027,17.79466 0.240106,35.37567 0.527607,39.06891 l 0.522729,6.71496 H 18.434189 0 Z"
     id="path33"
     transform="scale(0.75)" />
  <path
     style="fill:none;fill-rule:nonzero;stroke-width:0.813936"
     d="M 0,116.39279 V 77.323879 h 17.906583 17.906582 l 0.0049,32.353941 c 0.0027,17.79466 0.240106,35.37567 0.527607,39.06891 l 0.522729,6.71496 H 18.434189 0 Z"
     id="path34"
     transform="scale(0.75)" />
  <path
     style="opacity:0;fill:#ffffff;fill-rule:nonzero;stroke-width:0.813936"
     d="M 0,116.39279 V 77.323879 h 17.906583 17.906582 l 0.0049,32.353941 c 0.0027,17.79466 0.240106,35.37567 0.527607,39.06891 l 0.522729,6.71496 H 18.434189 0 Z"
     id="path35"
     transform="scale(0.75)" />
  <path
     style="opacity:0;fill:#ffffff;fill-rule:nonzero;stroke-width:0.813936"
     d="M 0,17.906583 V 0.81393557 H 17.499615 34.99923 V 17.906583 34.99923 H 17.499615 0 Z"
     id="path36"
     transform="scale(0.75)" />
  <path
     style="opacity:0;fill:#ffffff;fill-rule:nonzero;stroke-width:0.813936"
     d="m 182.80578,31.540003 c -0.24577,-2.350239 -0.56189,-9.99095 -0.70249,-16.979358 L 181.84766,1.8544483 190.35059,1.334192 c 4.67661,-0.286141 12.65806,-0.52025643 17.73657,-0.52025643 h 9.23364 V 18.31355 35.813165 h -17.03408 -17.03408 z"
     id="path37"
     transform="scale(0.75)" />
  <path
     style="opacity:0;fill:#ffffff;fill-rule:nonzero;stroke-width:0.813936"
     d="m 187.81563,154.86021 -4.68013,-0.29369 V 117.1661 79.765686 h 16.55907 16.55907 l 0.5306,11.598582 c 0.29183,6.37922 0.53194,23.410822 0.53358,37.848002 l 0.003,26.24942 -12.41252,-0.1539 c -6.82688,-0.0846 -14.51858,-0.28606 -17.09265,-0.44758 z"
     id="path38"
     transform="scale(0.75)" />
  <path
     style="opacity:0;fill:#ffffff;fill-rule:nonzero;stroke-width:0.813936"
     d="m 152.40944,154.85906 -5.0871,-0.28898 v -21.53045 -21.53046 h 5.29058 5.29058 v 21.97626 c 0,12.08695 -0.0916,21.90569 -0.20348,21.81944 -0.11192,-0.0863 -2.49268,-0.28687 -5.29058,-0.44581 z"
     id="path39"
     transform="scale(0.75)" />
  <path
     style="opacity:0;fill:#ffffff;fill-rule:nonzero;stroke-width:0.813936"
     d="m 91.977209,147.93279 c 0.0014,-4.1409 0.242155,-13.84708 0.535081,-21.56929 l 0.532593,-14.04039 h 14.522727 14.52273 v 21.56929 21.56929 H 107.03253 91.97472 Z"
     id="path40"
     transform="scale(0.75)" />
  <path
     style="fill:#ffffff;fill-rule:nonzero;stroke-width:0.813936;opacity:0"
     d="m 57.409289,133.68892 c 0.320595,-11.97503 0.628846,-21.82595 0.685002,-21.89094 0.05616,-0.065 2.757567,0.0758 6.003135,0.31285 l 5.901033,0.43101 v 20.98513 c 0,16.02653 0.240408,21.08214 1.01742,21.39567 0.55958,0.2258 -2.404136,0.43945 -6.586035,0.4748 l -7.603454,0.0643 z"
     id="path41"
     transform="scale(0.75)" />
  <path
     style="opacity:0;fill:#ffffff;fill-rule:nonzero;stroke-width:0.813936"
     d="m 147.86496,154.10513 c -0.29844,-0.29844 -0.54262,-10.00462 -0.54262,-21.56929 v -21.02667 h 5.29058 5.29058 l -0.005,14.85433 c -0.003,8.16988 -0.2401,17.87606 -0.5276,21.56929 l -0.52273,6.71497 h -4.22035 c -2.3212,0 -4.46453,-0.24418 -4.76298,-0.54263 z"
     id="path42"
     transform="scale(0.75)" />
  <path
     style="opacity:0;fill:#ffffff;fill-rule:nonzero;stroke-width:0.813936"
     d="m 57.409289,133.68892 c 0.320595,-11.97503 0.628846,-21.82595 0.685002,-21.89094 0.05616,-0.065 2.757567,0.0758 6.003135,0.31285 l 5.901033,0.43101 v 20.98513 c 0,16.02653 0.240408,21.08214 1.01742,21.39567 0.55958,0.2258 -2.404136,0.43945 -6.586035,0.4748 l -7.603454,0.0643 z"
     id="path43"
     transform="scale(0.75)" />
  <path
     style="opacity:0;fill:#ffffff;fill-rule:nonzero;stroke-width:0.813936"
     d="M 122.09034,133.07847 V 110.69524 H 106.62556 91.160784 v 21.97626 21.97626 H 80.579622 69.998459 V 132.6715 110.69524 H 63.486975 56.97549 v 21.97626 21.97626 H 47.208263 37.441036 V 114.35795 74.068137 H 18.720518 0 V 54.533683 34.99923 H 17.499615 34.99923 V 17.092647 -0.81393557 h 72.84723 72.84724 V 17.499615 35.813165 h 18.72052 18.72051 v 21.976261 21.97626 l -18.924,0.01246 c -10.4082,0.0069 -18.4801,0.294556 -17.93758,0.639339 0.73517,0.467191 1.13124,10.104692 1.55491,37.835535 l 0.56846,37.20867 H 170.65001 157.9035 v -22.38322 -22.38323 h -5.29058 -5.29058 v 22.38323 22.38322 h -12.616 -12.616 z M 73.254202,28.487745 v -7.32542 H 65.114846 56.97549 v 7.32542 7.32542 h 8.139356 8.139356 z m 86.277168,0 v -7.32542 h -7.73239 -7.73238 v 7.32542 7.32542 h 7.73238 7.73239 z"
     id="path44"
     transform="scale(0.75)" />
  <path
     style="opacity:0;fill:#ffffff;fill-rule:nonzero;stroke-width:0.813936"
     d="M 122.09034,133.07847 V 110.69524 H 106.62556 91.160784 v 21.97626 21.97626 H 80.579622 69.998459 V 132.6715 110.69524 H 63.486975 56.97549 v 21.97626 21.97626 H 47.208263 37.441036 V 114.35795 74.068137 H 18.720518 0 V 54.533683 34.99923 H 17.499615 34.99923 V 17.092647 -0.81393557 h 72.84723 72.84724 V 17.499615 35.813165 h 18.72052 18.72051 v 21.976261 21.97626 l -18.924,0.01246 c -10.4082,0.0069 -18.4801,0.294556 -17.93758,0.639339 0.73517,0.467191 1.13124,10.104692 1.55491,37.835535 l 0.56846,37.20867 H 170.65001 157.9035 v -22.38322 -22.38323 h -5.29058 -5.29058 v 22.38323 22.38322 h -12.616 -12.616 z M 73.254202,28.487745 v -7.32542 H 65.114846 56.97549 v 7.32542 7.32542 h 8.139356 8.139356 z m 86.277168,0 v -7.32542 h -7.73239 -7.73238 v 7.32542 7.32542 h 7.73238 7.73239 z"
     id="path45"
     transform="scale(0.75)" />
  <path
     style="opacity:0;fill:#ffffff;fill-rule:nonzero;stroke-width:0.813936"
     d="m 57.409289,133.68892 c 0.320595,-11.97503 0.628846,-21.82595 0.685002,-21.89094 0.05616,-0.065 2.757567,0.0758 6.003135,0.31285 l 5.901033,0.43101 v 20.98513 c 0,16.02653 0.240408,21.08214 1.01742,21.39567 0.55958,0.2258 -2.404136,0.43945 -6.586035,0.4748 l -7.603454,0.0643 z"
     id="path46"
     transform="scale(0.75)" />
  <path
     style="opacity:0;fill:#ffffff;fill-rule:nonzero;stroke-width:0.813936"
     d="m 57.409289,133.68892 c 0.320595,-11.97503 0.628846,-21.82595 0.685002,-21.89094 0.05616,-0.065 2.757567,0.0758 6.003135,0.31285 l 5.901033,0.43101 v 20.98513 c 0,16.02653 0.240408,21.08214 1.01742,21.39567 0.55958,0.2258 -2.404136,0.43945 -6.586035,0.4748 l -7.603454,0.0643 z"
     id="path47"
     transform="scale(0.75)" />
  <path
     style="opacity:0;fill:#ffffff;fill-rule:nonzero;stroke-width:0.813936"
     d="M 122.09034,133.07847 V 110.69524 H 106.62556 91.160784 v 21.97626 21.97626 H 80.579622 69.998459 V 132.6715 110.69524 H 63.486975 56.97549 v 21.97626 21.97626 H 47.208263 37.441036 V 114.35795 74.068137 H 18.720518 0 V 54.533683 34.99923 H 17.499615 34.99923 V 17.092647 -0.81393557 h 72.84723 72.84724 V 17.499615 35.813165 h 18.72052 18.72051 v 21.976261 21.97626 l -18.924,0.01246 c -10.4082,0.0069 -18.4801,0.294556 -17.93758,0.639339 0.73517,0.467191 1.13124,10.104692 1.55491,37.835535 l 0.56846,37.20867 H 170.65001 157.9035 v -22.38322 -22.38323 h -5.29058 -5.29058 v 22.38323 22.38322 h -12.616 -12.616 z M 73.254202,28.487745 v -7.32542 H 65.114846 56.97549 v 7.32542 7.32542 h 8.139356 8.139356 z m 86.277168,0 v -7.32542 h -7.73239 -7.73238 v 7.32542 7.32542 h 7.73238 7.73239 z"
     id="path48"
     transform="scale(0.75)" />
  <path
     style="opacity:0;fill:#ffffff;fill-rule:nonzero;stroke-width:0.813936"
     d="M 122.09034,133.07847 V 110.69524 H 106.62556 91.160784 v 21.97626 21.97626 H 80.579622 69.998459 V 132.6715 110.69524 H 63.486975 56.97549 v 21.97626 21.97626 H 47.208263 37.441036 V 114.35795 74.068137 H 18.720518 0 V 54.533683 34.99923 H 17.499615 34.99923 V 17.092647 -0.81393557 h 72.84723 72.84724 V 17.499615 35.813165 h 18.72052 18.72051 v 21.976261 21.97626 l -18.924,0.01246 c -10.4082,0.0069 -18.4801,0.294556 -17.93758,0.639339 0.73517,0.467191 1.13124,10.104692 1.55491,37.835535 l 0.56846,37.20867 H 170.65001 157.9035 v -22.38322 -22.38323 h -5.29058 -5.29058 v 22.38323 22.38322 h -12.616 -12.616 z M 73.254202,28.487745 v -7.32542 H 65.114846 56.97549 v 7.32542 7.32542 h 8.139356 8.139356 z m 86.277168,0 v -7.32542 h -7.73239 -7.73238 v 7.32542 7.32542 h 7.73238 7.73239 z"
     id="path49"
     transform="scale(0.75)" />
  <path
     style="opacity:0;fill:#ffffff;fill-rule:nonzero;stroke-width:0.813936"
     d="m 57.409289,133.68892 c 0.320595,-11.97503 0.628846,-21.82595 0.685002,-21.89094 0.05616,-0.065 2.757567,0.0758 6.003135,0.31285 l 5.901033,0.43101 v 20.98513 c 0,16.02653 0.240408,21.08214 1.01742,21.39567 0.55958,0.2258 -2.404136,0.43945 -6.586035,0.4748 l -7.603454,0.0643 z"
     id="path50"
     transform="scale(0.75)" />
  <path
     style="opacity:0;fill:#ffffff;fill-rule:nonzero;stroke-width:0.813936"
     d="M 122.09034,133.07847 V 110.69524 H 106.62556 91.160784 v 21.97626 21.97626 H 80.579622 69.998459 V 132.6715 110.69524 H 63.486975 56.97549 v 21.97626 21.97626 H 47.208263 37.441036 V 114.35795 74.068137 H 18.720518 0 V 54.533683 34.99923 H 17.499615 34.99923 V 17.092647 -0.81393557 h 72.84723 72.84724 V 17.499615 35.813165 h 18.72052 18.72051 v 21.976261 21.97626 l -18.924,0.01246 c -10.4082,0.0069 -18.4801,0.294556 -17.93758,0.639339 0.73517,0.467191 1.13124,10.104692 1.55491,37.835535 l 0.56846,37.20867 H 170.65001 157.9035 v -22.38322 -22.38323 h -5.29058 -5.29058 v 22.38323 22.38322 h -12.616 -12.616 z M 73.254202,28.487745 v -7.32542 H 65.114846 56.97549 v 7.32542 7.32542 h 8.139356 8.139356 z m 86.277168,0 v -7.32542 h -7.73239 -7.73238 v 7.32542 7.32542 h 7.73238 7.73239 z"
     id="path51"
     transform="scale(0.75)" />
  <path
     style="opacity:0;fill:#ffffff;fill-rule:nonzero;stroke-width:0.813936"
     d="m 57.409289,133.68892 c 0.320595,-11.97503 0.628846,-21.82595 0.685002,-21.89094 0.05616,-0.065 2.757567,0.0758 6.003135,0.31285 l 5.901033,0.43101 v 20.98513 c 0,16.02653 0.240408,21.08214 1.01742,21.39567 0.55958,0.2258 -2.404136,0.43945 -6.586035,0.4748 l -7.603454,0.0643 z"
     id="path52"
     transform="scale(0.75)" />
  <path
     style="opacity:0;fill:#ffffff;fill-rule:nonzero;stroke-width:0.813936"
     d="m 57.409289,133.68892 c 0.320595,-11.97503 0.628846,-21.82595 0.685002,-21.89094 0.05616,-0.065 2.757567,0.0758 6.003135,0.31285 l 5.901033,0.43101 v 20.98513 c 0,16.02653 0.240408,21.08214 1.01742,21.39567 0.55958,0.2258 -2.404136,0.43945 -6.586035,0.4748 l -7.603454,0.0643 z"
     id="path53"
     transform="scale(0.75)" />
  <path
     style="opacity:0;fill:#ffffff;fill-rule:nonzero;stroke-width:0.813936"
     d="m 57.409289,133.68892 c 0.320595,-11.97503 0.628846,-21.82595 0.685002,-21.89094 0.05616,-0.065 2.757567,0.0758 6.003135,0.31285 l 5.901033,0.43101 v 20.98513 c 0,16.02653 0.240408,21.08214 1.01742,21.39567 0.55958,0.2258 -2.404136,0.43945 -6.586035,0.4748 l -7.603454,0.0643 z"
     id="path54"
     transform="scale(0.75)" />
  <path
     style="opacity:0;fill:#ffffff;fill-rule:nonzero;stroke-width:0.813936"
     d="m 57.409289,133.68892 c 0.320595,-11.97503 0.628846,-21.82595 0.685002,-21.89094 0.05616,-0.065 2.757567,0.0758 6.003135,0.31285 l 5.901033,0.43101 v 20.98513 c 0,16.02653 0.240408,21.08214 1.01742,21.39567 0.55958,0.2258 -2.404136,0.43945 -6.586035,0.4748 l -7.603454,0.0643 z"
     id="path55"
     transform="scale(0.75)" />
  <path
     style="opacity:0;fill:#ffffff;fill-rule:nonzero;stroke-width:0.813936"
     d="m 57.409289,133.68892 c 0.320595,-11.97503 0.628846,-21.82595 0.685002,-21.89094 0.05616,-0.065 2.757567,0.0758 6.003135,0.31285 l 5.901033,0.43101 v 20.98513 c 0,16.02653 0.240408,21.08214 1.01742,21.39567 0.55958,0.2258 -2.404136,0.43945 -6.586035,0.4748 l -7.603454,0.0643 z"
     id="path56"
     transform="scale(0.75)" />
  <path
     style="opacity:0;fill:#ffffff;fill-rule:nonzero;stroke-width:0.813936"
     d="m 57.409289,133.68892 c 0.320595,-11.97503 0.628846,-21.82595 0.685002,-21.89094 0.05616,-0.065 2.757567,0.0758 6.003135,0.31285 l 5.901033,0.43101 v 20.98513 c 0,16.02653 0.240408,21.08214 1.01742,21.39567 0.55958,0.2258 -2.404136,0.43945 -6.586035,0.4748 l -7.603454,0.0643 z"
     id="path57"
     transform="scale(0.75)" />
  <path
     style="opacity:0;fill:#ffffff;fill-rule:nonzero;stroke-width:0.813936"
     d="m 57.409289,133.68892 c 0.320595,-11.97503 0.628846,-21.82595 0.685002,-21.89094 0.05616,-0.065 2.757567,0.0758 6.003135,0.31285 l 5.901033,0.43101 v 20.98513 c 0,16.02653 0.240408,21.08214 1.01742,21.39567 0.55958,0.2258 -2.404136,0.43945 -6.586035,0.4748 l -7.603454,0.0643 z"
     id="path58"
     transform="scale(0.75)" />
</svg>
